<svg width="662" height="108" viewBox="0 0 662 108" fill="none" xmlns="http://www.w3.org/2000/svg">
<path d="M-18.136 106L-21.8744 104.577L-23.9384 110H-18.136V106ZM20.888 3.472V-0.528002H18.1305L17.1496 2.04911L20.888 3.472ZM50.264 3.472L54.0076 2.0629L53.0324 -0.528002H50.264V3.472ZM88.856 106V110H94.6356L92.5996 104.591L88.856 106ZM58.904 106L55.1043 107.25L56.0089 110H58.904V106ZM30.248 18.88V14.88H24.7215L26.4483 20.1298L30.248 18.88ZM40.616 18.88L44.4063 20.1581L46.186 14.88H40.616V18.88ZM11.24 106V110H14.1125L15.0303 107.278L11.24 106ZM7.208 88.72H3.208V92.72H7.208V88.72ZM7.208 66.256V62.256H3.208V66.256H7.208ZM64.52 66.256H68.52V62.256H64.52V66.256ZM64.52 88.72V92.72H68.52V88.72H64.52ZM-14.3976 107.423L24.6264 4.89489L17.1496 2.04911L-21.8744 104.577L-14.3976 107.423ZM20.888 7.472H50.264V-0.528002H20.888V7.472ZM46.5204 4.8811L85.1124 107.409L92.5996 104.591L54.0076 2.0629L46.5204 4.8811ZM88.856 102H58.904V110H88.856V102ZM62.7037 104.75L34.0477 17.6302L26.4483 20.1298L55.1043 107.25L62.7037 104.75ZM30.248 22.88H40.616V14.88H30.248V22.88ZM36.8257 17.6019L7.44968 104.722L15.0303 107.278L44.4063 20.1581L36.8257 17.6019ZM11.24 102H-18.136V110H11.24V102ZM11.208 88.72V66.256H3.208V88.72H11.208ZM7.208 70.256H64.52V62.256H7.208V70.256ZM60.52 66.256V88.72H68.52V66.256H60.52ZM64.52 84.72H7.208V92.72H64.52V84.72ZM131.895 104.992L133.493 101.325L133.493 101.325L131.895 104.992ZM122.391 98.512L119.464 101.238L119.487 101.263L119.512 101.289L122.391 98.512ZM117.351 89.44H113.351V89.9042L113.457 90.3562L117.351 89.44ZM117.351 50.272L113.457 49.3558L113.351 49.8077V50.272H117.351ZM122.391 41.632L119.617 38.7507L119.617 38.7507L122.391 41.632ZM131.895 35.872L133.247 39.6368L133.289 39.6216L133.331 39.6054L131.895 35.872ZM162.135 38.464L160.049 41.8771L160.086 41.8997L160.124 41.9214L162.135 38.464ZM174.375 51.424L170.822 53.2617L170.835 53.2857L170.847 53.3095L174.375 51.424ZM174.375 89.728L170.847 87.8425L170.841 87.8537L170.835 87.865L174.375 89.728ZM162.135 102.688L160.077 99.258L160.063 99.2664L160.049 99.2749L162.135 102.688ZM144.711 81.088L142.707 77.6263L142.666 77.6501L142.625 77.6749L144.711 81.088ZM148.887 76.768L145.425 74.7639L145.385 74.8336L145.347 74.905L148.887 76.768ZM148.887 64.384L145.347 66.247L145.385 66.3183L145.425 66.3881L148.887 64.384ZM144.711 60.064L142.707 63.5257L142.707 63.5257L144.711 60.064ZM132.327 60.064L130.323 56.6023L130.282 56.6261L130.241 56.6509L132.327 60.064ZM128.295 64.384L131.792 66.3266L131.814 66.287L131.835 66.247L128.295 64.384ZM128.295 76.912L124.755 78.775L124.793 78.8464L124.833 78.9161L128.295 76.912ZM132.471 81.232L130.385 84.6451L130.495 84.712L130.608 84.7717L132.471 81.232ZM100.215 106H96.2151V110H100.215V106ZM100.215 0.591992V-3.40801H96.2151V0.591992H100.215ZM128.439 0.591992H132.439V-3.40801H128.439V0.591992ZM128.439 52.576L132.302 53.6147L132.439 53.1044V52.576H128.439ZM123.831 69.712L119.968 68.6733L119.712 69.6268L119.929 70.59L123.831 69.712ZM127.719 86.992H131.719V86.5476L131.622 86.114L127.719 86.992ZM127.719 106V110H131.719V106H127.719ZM143.847 103.44C140.154 103.44 136.716 102.73 133.493 101.325L130.297 108.659C134.562 110.518 139.092 111.44 143.847 111.44V103.44ZM133.493 101.325C130.185 99.8832 127.465 98.0114 125.271 95.7355L119.512 101.289C122.501 104.389 126.117 106.837 130.297 108.659L133.493 101.325ZM125.319 95.7863C123.136 93.4417 121.833 91.0241 121.245 88.5238L113.457 90.3562C114.405 94.3839 116.462 98.0143 119.464 101.238L125.319 95.7863ZM121.351 89.44V50.272H113.351V89.44H121.351ZM121.245 51.1882C121.824 48.7285 123.086 46.5163 125.166 44.5133L119.617 38.7507C116.513 41.7397 114.415 45.2875 113.457 49.3558L121.245 51.1882ZM125.166 44.5133C127.31 42.4485 129.978 40.8103 133.247 39.6368L130.544 32.1072C126.325 33.6217 122.656 35.8235 119.617 38.7507L125.166 44.5133ZM133.331 39.6054C136.593 38.3508 140.088 37.712 143.847 37.712V29.712C139.159 29.712 134.685 30.5132 130.459 32.1386L133.331 39.6054ZM143.847 37.712C150.234 37.712 155.585 39.1488 160.049 41.8771L164.221 35.0509C158.317 31.4432 151.476 29.712 143.847 29.712V37.712ZM160.124 41.9214C164.728 44.6005 168.282 48.3504 170.822 53.2617L177.928 49.5863C174.708 43.3616 170.102 38.4715 164.147 35.0066L160.124 41.9214ZM170.847 53.3095C173.472 58.2203 174.839 63.9405 174.839 70.576H182.839C182.839 62.8115 181.23 55.7637 177.903 49.5385L170.847 53.3095ZM174.839 70.576C174.839 77.2115 173.472 82.9317 170.847 87.8425L177.903 91.6135C181.23 85.3883 182.839 78.3405 182.839 70.576H174.839ZM170.835 87.865C168.295 92.6918 164.726 96.4685 160.077 99.258L164.193 106.118C170.104 102.571 174.695 97.7082 177.915 91.591L170.835 87.865ZM160.049 99.2749C155.585 102.003 150.234 103.44 143.847 103.44V111.44C151.476 111.44 158.317 109.709 164.221 106.101L160.049 99.2749ZM138.663 86.672C141.6 86.672 144.358 85.9916 146.797 84.5011L142.625 77.6749C141.608 78.2964 140.335 78.672 138.663 78.672V86.672ZM146.715 84.5497C149.176 83.1251 151.108 81.1376 152.427 78.631L145.347 74.905C144.747 76.0464 143.894 76.9389 142.707 77.6263L146.715 84.5497ZM152.349 78.7721C153.79 76.2832 154.471 73.5163 154.471 70.576H146.471C146.471 72.2437 146.096 73.6048 145.425 74.7639L152.349 78.7721ZM154.471 70.576C154.471 67.6357 153.79 64.8688 152.349 62.3799L145.425 66.3881C146.096 67.5472 146.471 68.9083 146.471 70.576H154.471ZM152.427 62.521C151.108 60.0144 149.176 58.0269 146.715 56.6023L142.707 63.5257C143.894 64.2131 144.747 65.1056 145.347 66.247L152.427 62.521ZM146.715 56.6023C144.226 55.1613 141.459 54.48 138.519 54.48V62.48C140.187 62.48 141.548 62.8547 142.707 63.5257L146.715 56.6023ZM138.519 54.48C135.579 54.48 132.812 55.1613 130.323 56.6023L134.331 63.5257C135.49 62.8547 136.851 62.48 138.519 62.48V54.48ZM130.241 56.6509C127.886 58.09 126.045 60.0706 124.755 62.521L131.835 66.247C132.465 65.0494 133.312 64.15 134.413 63.4771L130.241 56.6509ZM124.799 62.4414C123.445 64.8785 122.855 67.6409 122.855 70.576H130.855C130.855 68.7111 131.226 67.3455 131.792 66.3266L124.799 62.4414ZM122.855 70.576C122.855 73.5182 123.447 76.2888 124.755 78.775L131.835 75.049C131.223 73.8872 130.855 72.4338 130.855 70.576H122.855ZM124.833 78.9161C126.209 81.2927 128.065 83.2271 130.385 84.6451L134.557 77.8189C133.421 77.1249 132.493 76.1793 131.757 74.9079L124.833 78.9161ZM130.608 84.7717C133.072 86.0682 135.788 86.672 138.663 86.672V78.672C136.931 78.672 135.519 78.3158 134.334 77.6923L130.608 84.7717ZM104.215 106V0.591992H96.2151V106H104.215ZM100.215 4.59199H128.439V-3.40801H100.215V4.59199ZM124.439 0.591992V52.576H132.439V0.591992H124.439ZM124.576 51.5373L119.968 68.6733L127.694 70.7507L132.302 53.6147L124.576 51.5373ZM119.929 70.59L123.817 87.87L131.622 86.114L127.734 68.834L119.929 70.59ZM123.719 86.992V106H131.719V86.992H123.719ZM127.719 102H100.215V110H127.719V102ZM206.682 102.976L204.782 106.496L204.815 106.514L204.849 106.531L206.682 102.976ZM192.282 89.584L188.867 91.6675L188.88 91.6884L188.893 91.7092L192.282 89.584ZM192.282 51.424L188.883 49.3145L188.883 49.3145L192.282 51.424ZM206.538 38.32L208.394 41.8633L208.404 41.8579L208.414 41.8525L206.538 38.32ZM248.154 38.32L246.254 41.8401L246.276 41.8518L246.298 41.8633L248.154 38.32ZM262.41 51.424L259.011 53.5334L259.024 53.5544L259.038 53.5753L262.41 51.424ZM262.554 89.584L265.968 91.6675L265.968 91.6675L262.554 89.584ZM248.298 102.976L250.154 106.519L250.176 106.508L250.197 106.496L248.298 102.976ZM233.61 81.52L235.552 85.0166L235.583 84.9994L235.614 84.9817L233.61 81.52ZM237.786 77.2L241.325 79.063L241.345 79.0261L241.363 78.9889L237.786 77.2ZM237.642 64.096L234.064 65.8849L234.119 65.9943L234.18 66.1001L237.642 64.096ZM233.61 59.776L231.524 63.1891L231.595 63.2324L231.667 63.2726L233.61 59.776ZM221.226 59.776L219.222 56.3143L219.18 56.3381L219.14 56.3629L221.226 59.776ZM217.05 64.24L213.545 62.3123L213.527 62.3445L213.51 62.377L217.05 64.24ZM217.05 77.2L213.472 78.9889L213.527 79.0983L213.588 79.2041L217.05 77.2ZM221.226 81.52L219.14 84.9331L219.249 85L219.363 85.0597L221.226 81.52ZM227.562 103.728C220.343 103.728 214.025 102.262 208.515 99.4208L204.849 106.531C211.627 110.026 219.229 111.728 227.562 111.728V103.728ZM208.581 99.4559C203.124 96.5108 198.845 92.5201 195.671 87.4588L188.893 91.7092C192.823 97.9759 198.143 102.913 204.782 106.496L208.581 99.4559ZM195.696 87.5005C192.65 82.5086 191.098 76.8549 191.098 70.432H183.098C183.098 78.2171 185.001 85.3314 188.867 91.6675L195.696 87.5005ZM191.098 70.432C191.098 64.0084 192.65 58.415 195.68 53.5335L188.883 49.3145C185.001 55.569 183.098 62.6476 183.098 70.432H191.098ZM195.68 53.5335C198.743 48.5986 202.951 44.7142 208.394 41.8633L204.682 34.7767C198.028 38.2618 192.732 43.1134 188.883 49.3145L195.68 53.5335ZM208.414 41.8525C213.915 38.9302 220.218 37.424 227.418 37.424V29.424C219.066 29.424 211.448 31.1818 204.661 34.7875L208.414 41.8525ZM227.418 37.424C234.619 37.424 240.863 38.9305 246.254 41.8401L250.053 34.7999C243.349 31.1815 235.769 29.424 227.418 29.424V37.424ZM246.298 41.8633C251.74 44.7142 255.948 48.5986 259.011 53.5334L265.808 49.3145C261.959 43.1134 256.663 38.2618 250.01 34.7767L246.298 41.8633ZM259.038 53.5753C262.148 58.4517 263.738 64.0301 263.738 70.432H271.738C271.738 62.6259 269.775 55.5323 265.782 49.2727L259.038 53.5753ZM263.738 70.432C263.738 76.8549 262.185 82.5086 259.139 87.5005L265.968 91.6675C269.834 85.3314 271.738 78.2171 271.738 70.432H263.738ZM259.139 87.5005C256.066 92.5378 251.846 96.5157 246.398 99.4559L250.197 106.496C256.845 102.908 262.13 97.9582 265.968 91.6675L259.139 87.5005ZM246.442 99.4327C241.042 102.261 234.782 103.728 227.562 103.728V111.728C235.894 111.728 243.458 110.027 250.154 106.519L246.442 99.4327ZM227.418 86.96C230.353 86.96 233.115 86.3705 235.552 85.0166L231.667 78.0234C230.648 78.5895 229.283 78.96 227.418 78.96V86.96ZM235.614 84.9817C238.075 83.5571 240.006 81.5696 241.325 79.063L234.246 75.337C233.645 76.4784 232.793 77.3709 231.606 78.0583L235.614 84.9817ZM241.363 78.9889C242.643 76.4296 243.226 73.592 243.226 70.576H235.226C235.226 72.552 234.848 74.1304 234.208 75.4111L241.363 78.9889ZM243.226 70.576C243.226 67.5066 242.572 64.6286 241.103 62.0919L234.18 66.1001C234.823 67.2114 235.226 68.6534 235.226 70.576H243.226ZM241.219 62.3071C239.931 59.7311 238.046 57.6647 235.552 56.2794L231.667 63.2726C232.63 63.8073 233.432 64.6209 234.064 65.8849L241.219 62.3071ZM235.696 56.3629C233.232 54.8571 230.416 54.192 227.418 54.192V62.192C229.219 62.192 230.532 62.5829 231.524 63.1891L235.696 56.3629ZM227.418 54.192C224.477 54.192 221.711 54.8733 219.222 56.3143L223.23 63.2377C224.389 62.5667 225.75 62.192 227.418 62.192V54.192ZM219.14 56.3629C216.769 57.8116 214.908 59.8337 213.545 62.3123L220.555 66.1677C221.303 64.8063 222.226 63.8524 223.312 63.1891L219.14 56.3629ZM213.51 62.377C212.19 64.8846 211.61 67.7105 211.61 70.72H219.61C219.61 68.7375 219.989 67.2434 220.589 66.103L213.51 62.377ZM211.61 70.72C211.61 73.6669 212.203 76.4508 213.472 78.9889L220.627 75.4111C219.977 74.1092 219.61 72.5731 219.61 70.72H211.61ZM213.588 79.2041C214.964 81.5807 216.819 83.5151 219.14 84.9331L223.312 78.1069C222.176 77.4129 221.248 76.4673 220.511 75.1959L213.588 79.2041ZM219.363 85.0597C221.826 86.3562 224.542 86.96 227.418 86.96V78.96C225.685 78.96 224.273 78.6038 223.089 77.9803L219.363 85.0597ZM295.514 103.696L293.699 107.261L293.712 107.267L293.725 107.274L295.514 103.696ZM282.986 92.464L279.617 94.6202L279.617 94.6202L282.986 92.464ZM278.378 35.152V31.152H274.378V35.152H278.378ZM306.602 35.152H310.602V31.152H306.602V35.152ZM307.466 80.224L303.888 82.0129L303.946 82.1281L304.011 82.2395L307.466 80.224ZM310.058 82.96L307.91 86.3346L308.085 86.4454L308.269 86.5377L310.058 82.96ZM318.986 81.808L316.158 78.9796L316.158 78.9796L318.986 81.808ZM321.146 35.152V31.152H317.146V35.152H321.146ZM349.37 35.152H353.37V31.152H349.37V35.152ZM344.762 92.608L341.393 90.4518L341.387 90.4606L341.382 90.4694L344.762 92.608ZM332.234 103.696L330.445 100.118L330.432 100.125L330.419 100.131L332.234 103.696ZM313.946 103.728C307.562 103.728 302.046 102.49 297.303 100.118L293.725 107.274C299.734 110.278 306.506 111.728 313.946 111.728V103.728ZM297.329 100.131C292.657 97.7528 289.028 94.4841 286.355 90.3078L279.617 94.6202C283.088 100.044 287.811 104.263 293.699 107.261L297.329 100.131ZM286.355 90.3078C283.727 86.202 282.378 81.49 282.378 76.048H274.378C274.378 82.894 276.101 89.126 279.617 94.6202L286.355 90.3078ZM282.378 76.048V35.152H274.378V76.048H282.378ZM278.378 39.152H306.602V31.152H278.378V39.152ZM302.602 35.152V76.336H310.602V35.152H302.602ZM302.602 76.336C302.602 78.3229 303.003 80.2428 303.888 82.0129L311.044 78.4351C310.777 77.9012 310.602 77.2291 310.602 76.336H302.602ZM304.011 82.2395C304.983 83.9052 306.281 85.298 307.91 86.3346L312.205 79.5854C311.723 79.278 311.293 78.8468 310.921 78.2085L304.011 82.2395ZM308.269 86.5377C310.039 87.4228 311.959 87.824 313.946 87.824V79.824C313.053 79.824 312.381 79.6492 311.847 79.3823L308.269 86.5377ZM313.946 87.824C316.951 87.824 319.671 86.7796 321.814 84.6364L316.158 78.9796C315.613 79.5244 314.973 79.824 313.946 79.824V87.824ZM321.814 84.6364C324.072 82.3793 325.146 79.5063 325.146 76.336H317.146C317.146 77.5817 316.78 78.3567 316.158 78.9796L321.814 84.6364ZM325.146 76.336V35.152H317.146V76.336H325.146ZM321.146 39.152H349.37V31.152H321.146V39.152ZM345.37 35.152V76.048H353.37V35.152H345.37ZM345.37 76.048C345.37 81.5991 344.014 86.3562 341.393 90.4518L348.131 94.7642C351.654 89.2598 353.37 82.9769 353.37 76.048H345.37ZM341.382 90.4694C338.826 94.5087 335.223 97.7292 330.445 100.118L334.023 107.274C339.997 104.287 344.746 100.115 348.142 94.7466L341.382 90.4694ZM330.419 100.131C325.788 102.489 320.332 103.728 313.946 103.728V111.728C321.384 111.728 328.12 110.279 334.049 107.261L330.419 100.131ZM374.073 106H370.073V110H374.073V106ZM374.073 6.064V2.064H370.073V6.064H374.073ZM402.297 6.064H406.297V2.064H402.297V6.064ZM402.297 106V110H406.297V106H402.297ZM358.953 58.192H354.953V62.192H358.953V58.192ZM358.953 35.152V31.152H354.953V35.152H358.953ZM417.417 35.152H421.417V31.152H417.417V35.152ZM417.417 58.192V62.192H421.417V58.192H417.417ZM378.073 106V6.064H370.073V106H378.073ZM374.073 10.064H402.297V2.064H374.073V10.064ZM398.297 6.064V106H406.297V6.064H398.297ZM402.297 102H374.073V110H402.297V102ZM362.953 58.192V35.152H354.953V58.192H362.953ZM358.953 39.152H417.417V31.152H358.953V39.152ZM413.417 35.152V58.192H421.417V35.152H413.417ZM417.417 54.192H358.953V62.192H417.417V54.192ZM458.544 106H454.544V110H458.544V106ZM458.544 35.152V31.152H454.544V35.152H458.544ZM486.768 35.152H490.768V31.152H486.768V35.152ZM486.768 106V110H490.768V106H486.768ZM502.176 106H498.176V110H502.176V106ZM500.016 59.776L497.188 62.6044L497.237 62.6532L497.287 62.7002L500.016 59.776ZM490.368 58.624L492.157 62.2017L492.212 62.1746L492.265 62.1459L490.368 58.624ZM487.632 61.216L484.177 59.2005L484.112 59.3119L484.055 59.4271L487.632 61.216ZM486.768 65.392L485.386 69.1454L490.768 71.1285V65.392H486.768ZM475.824 61.36H471.824V64.1491L474.442 65.1134L475.824 61.36ZM479.568 46.528L476.181 44.4009L476.163 44.4295L476.146 44.4583L479.568 46.528ZM489.936 37.024L491.757 40.5857L491.757 40.5857L489.936 37.024ZM517.584 37.168L515.527 40.598L515.545 40.6091L515.564 40.6201L517.584 37.168ZM526.944 46.816L523.452 48.7655L523.462 48.7831L523.472 48.8006L526.944 46.816ZM530.4 106V110H534.4V106H530.4ZM545.808 106H541.808V110H545.808V106ZM543.648 59.776L540.82 62.6044L540.869 62.6532L540.919 62.7002L543.648 59.776ZM534 58.624L535.789 62.2017L535.844 62.1746L535.897 62.1459L534 58.624ZM531.264 61.216L527.809 59.2005L527.744 59.3119L527.687 59.4271L531.264 61.216ZM530.4 65.392L530.435 69.3918L534.4 69.3574V65.392H530.4ZM513.84 65.536H509.84V69.5709L513.875 69.5358L513.84 65.536ZM517.728 48.544L514.238 46.5896L514.232 46.6016L514.225 46.6136L517.728 48.544ZM528.816 37.6L530.691 41.1334L530.719 41.1186L530.747 41.1033L528.816 37.6ZM559.92 37.312L557.978 40.8086L557.994 40.8176L558.01 40.8265L559.92 37.312ZM570.288 47.68L566.788 49.6162L566.788 49.6162L570.288 47.68ZM574.032 106V110H578.032V106H574.032ZM462.544 106V35.152H454.544V106H462.544ZM458.544 39.152H486.768V31.152H458.544V39.152ZM482.768 35.152V106H490.768V35.152H482.768ZM486.768 102H458.544V110H486.768V102ZM506.176 106V65.392H498.176V106H506.176ZM506.176 65.392C506.176 62.1441 505.169 59.1135 502.746 56.8518L497.287 62.7002C497.744 63.1265 498.176 63.8399 498.176 65.392H506.176ZM502.845 56.9476C500.588 54.6905 497.715 53.616 494.544 53.616V61.616C495.79 61.616 496.565 61.9815 497.188 62.6044L502.845 56.9476ZM494.544 53.616C492.403 53.616 490.351 54.0904 488.472 55.1021L492.265 62.1459C492.882 61.8136 493.614 61.616 494.544 61.616V53.616ZM488.58 55.0463C486.707 55.9828 485.226 57.4021 484.177 59.2005L491.088 63.2315C491.383 62.7259 491.726 62.4172 492.157 62.2017L488.58 55.0463ZM484.055 59.4271C483.137 61.2628 482.768 63.3003 482.768 65.392H490.768C490.768 64.2196 490.976 63.4732 491.21 63.0049L484.055 59.4271ZM488.151 61.6386L477.207 57.6066L474.442 65.1134L485.386 69.1454L488.151 61.6386ZM479.824 61.36C479.824 56.1871 480.94 51.9897 482.991 48.5977L476.146 44.4583C473.205 49.3223 471.824 55.0129 471.824 61.36H479.824ZM482.956 48.6551C485.166 45.1348 488.082 42.4639 491.757 40.5857L488.116 33.4623C483.151 36.0001 479.155 39.6652 476.181 44.4009L482.956 48.6551ZM491.757 40.5857C495.445 38.7008 499.704 37.712 504.624 37.712V29.712C498.601 29.712 493.068 30.9312 488.116 33.4623L491.757 40.5857ZM504.624 37.712C508.754 37.712 512.353 38.6938 515.527 40.598L519.642 33.738C515.136 31.0341 510.095 29.712 504.624 29.712V37.712ZM515.564 40.6201C518.861 42.55 521.482 45.2369 523.452 48.7655L530.437 44.8665C527.799 40.1391 524.18 36.394 519.605 33.7159L515.564 40.6201ZM523.472 48.8006C525.367 52.1183 526.4 56.2055 526.4 61.216H534.4C534.4 55.0905 533.13 49.5777 530.417 44.8314L523.472 48.8006ZM526.4 61.216V106H534.4V61.216H526.4ZM530.4 102H502.176V110H530.4V102ZM549.808 106V65.392H541.808V106H549.808ZM549.808 65.392C549.808 62.1441 548.801 59.1135 546.378 56.8518L540.919 62.7002C541.376 63.1265 541.808 63.8399 541.808 65.392H549.808ZM546.477 56.9476C544.22 54.6905 541.347 53.616 538.176 53.616V61.616C539.422 61.616 540.197 61.9815 540.82 62.6044L546.477 56.9476ZM538.176 53.616C536.035 53.616 533.983 54.0904 532.104 55.1021L535.897 62.1459C536.514 61.8136 537.246 61.616 538.176 61.616V53.616ZM532.212 55.0463C530.339 55.9828 528.858 57.4021 527.809 59.2005L534.72 63.2315C535.015 62.7259 535.358 62.4172 535.789 62.2017L532.212 55.0463ZM527.687 59.4271C526.769 61.2628 526.4 63.3003 526.4 65.392H534.4C534.4 64.2197 534.608 63.4732 534.842 63.0049L527.687 59.4271ZM530.366 61.3922L513.806 61.5361L513.875 69.5358L530.435 69.3918L530.366 61.3922ZM517.84 65.536C517.84 59.4314 519.033 54.4643 521.232 50.4744L514.225 46.6136C511.24 52.0317 509.84 58.3926 509.84 65.536H517.84ZM521.219 50.4984C523.544 46.3455 526.69 43.2568 530.691 41.1334L526.942 34.0666C521.535 36.9352 517.289 41.1424 514.238 46.5896L521.219 50.4984ZM530.747 41.1033C534.788 38.8765 539.485 37.712 544.944 37.712V29.712C538.308 29.712 532.253 31.1395 526.886 34.0966L530.747 41.1033ZM544.944 37.712C550.029 37.712 554.334 38.7843 557.978 40.8086L561.863 33.8154C556.867 31.0396 551.188 29.712 544.944 29.712V37.712ZM558.01 40.8265C561.739 42.8528 564.651 45.7528 566.788 49.6162L573.789 45.7438C570.934 40.5832 566.934 36.5712 561.831 33.7975L558.01 40.8265ZM566.788 49.6162C568.889 53.4144 570.032 58.1399 570.032 63.952H578.032C578.032 57.0921 576.68 50.9696 573.789 45.7437L566.788 49.6162ZM570.032 63.952V106H578.032V63.952H570.032ZM574.032 102H545.808V110H574.032V102ZM604.815 103.12L603.004 106.687L603.026 106.698L603.048 106.709L604.815 103.12ZM590.127 90.016L586.712 92.0995L586.733 92.1336L586.755 92.1673L590.127 90.016ZM589.983 51.424L586.584 49.3145L586.571 49.3359L586.558 49.3573L589.983 51.424ZM604.095 38.32L605.974 41.851L605.996 41.8393L606.018 41.8272L604.095 38.32ZM643.839 38.032L641.932 41.5481L641.955 41.5607L641.978 41.573L643.839 38.032ZM657.087 50.56L653.641 52.5908L653.654 52.6134L653.668 52.6359L657.087 50.56ZM661.695 73.6L657.722 73.1326L657.709 73.2413L657.703 73.3505L661.695 73.6ZM660.831 79.072L660.858 83.0719L664.029 83.0505L664.731 79.9585L660.831 79.072ZM596.895 79.504H592.895V83.5311L596.922 83.5039L596.895 79.504ZM596.895 62.224L596.862 58.2241L592.895 58.2562V62.224H596.895ZM650.319 61.792L652.332 65.2485L665.343 57.6704L650.286 57.7921L650.319 61.792ZM637.215 69.424H633.215V76.3826L639.228 72.8805L637.215 69.424ZM635.775 60.064L631.995 61.3724L632.026 61.4618L632.061 61.5496L635.775 60.064ZM631.743 54.448L629.484 57.7492L629.484 57.7492L631.743 54.448ZM617.343 54.736L619.596 58.0409L619.596 58.0409L617.343 54.736ZM612.447 60.928L608.77 59.3523L608.746 59.4085L608.724 59.4654L612.447 60.928ZM612.591 80.656L608.914 82.2317L608.949 82.3123L608.987 82.3913L612.591 80.656ZM635.343 86.992L636.901 90.6759L636.934 90.6619L636.967 90.6472L635.343 86.992ZM642.399 81.664L645.213 78.8211L642.198 75.8373L639.396 79.0215L642.399 81.664ZM656.511 95.632L659.512 98.2761L662.007 95.4441L659.325 92.7891L656.511 95.632ZM626.559 103.728C618.802 103.728 612.178 102.287 606.581 99.5313L603.048 106.709C609.931 110.097 617.804 111.728 626.559 111.728V103.728ZM606.626 99.5533C600.984 96.689 596.643 92.7935 593.499 87.8647L586.755 92.1673C590.714 98.3745 596.166 103.215 603.004 106.687L606.626 99.5533ZM593.541 87.9325C590.506 82.9576 588.943 77.2125 588.943 70.576H580.943C580.943 78.5315 582.836 85.7464 586.712 92.0995L593.541 87.9325ZM588.943 70.576C588.943 64.0241 590.463 58.3696 593.408 53.4907L586.558 49.3573C582.782 55.6144 580.943 62.7279 580.943 70.576H588.943ZM593.381 53.5335C596.454 48.5829 600.626 44.6975 605.974 41.851L602.215 34.789C595.659 38.2785 590.423 43.1291 586.584 49.3145L593.381 53.5335ZM606.018 41.8272C611.321 38.919 617.368 37.424 624.255 37.424V29.424C616.165 29.424 608.772 31.193 602.171 34.8127L606.018 41.8272ZM624.255 37.424C631.08 37.424 636.934 38.8377 641.932 41.5481L645.746 34.5159C639.415 31.0823 632.214 29.424 624.255 29.424V37.424ZM641.978 41.573C647.001 44.2121 650.86 47.8728 653.641 52.5908L660.533 48.5292C656.977 42.4952 652.004 37.8039 645.699 34.491L641.978 41.573ZM653.668 52.6359C656.515 57.3251 657.983 62.7373 657.983 68.992H665.983C665.983 61.4227 664.187 54.5469 660.506 48.4841L653.668 52.6359ZM657.983 68.992C657.983 70.2558 657.898 71.6346 657.722 73.1326L665.667 74.0674C665.875 72.3014 665.983 70.6082 665.983 68.992H657.983ZM657.703 73.3505C657.624 74.6053 657.38 76.2058 656.93 78.1855L664.731 79.9585C665.241 77.7142 665.573 75.6667 665.687 73.8495L657.703 73.3505ZM660.804 75.0721L596.868 75.5041L596.922 83.5039L660.858 83.0719L660.804 75.0721ZM600.895 79.504V62.224H592.895V79.504H600.895ZM596.927 66.2239L650.351 65.7919L650.286 57.7921L596.862 58.2241L596.927 66.2239ZM648.306 58.3355L635.202 65.9675L639.228 72.8805L652.332 65.2485L648.306 58.3355ZM641.215 69.424C641.215 65.2993 640.706 61.622 639.489 58.5784L632.061 61.5496C632.763 63.306 633.215 65.8687 633.215 69.424H641.215ZM639.555 58.7556C638.467 55.612 636.663 52.9677 634.001 51.1468L629.484 57.7492C630.471 58.4243 631.355 59.524 631.995 61.3724L639.555 58.7556ZM634.001 51.1468C631.358 49.338 628.211 48.576 624.831 48.576V56.576C627.018 56.576 628.48 57.062 629.484 57.7492L634.001 51.1468ZM624.831 48.576C621.252 48.576 617.948 49.4822 615.089 51.4311L619.596 58.0409C620.962 57.1098 622.649 56.576 624.831 56.576V48.576ZM615.089 51.4311C612.261 53.3595 610.178 56.0675 608.77 59.3523L616.123 62.5037C617.02 60.4125 618.2 58.9925 619.596 58.0409L615.089 51.4311ZM608.724 59.4654C607.435 62.7451 606.863 66.5351 606.863 70.72H614.863C614.863 67.2249 615.346 64.4869 616.17 62.3906L608.724 59.4654ZM606.863 70.72C606.863 75.0209 607.489 78.9055 608.914 82.2317L616.267 79.0803C615.389 77.0305 614.863 74.2911 614.863 70.72H606.863ZM608.987 82.3913C610.552 85.6429 612.855 88.2372 615.903 90.0151L619.934 83.1049C618.374 82.1948 617.125 80.8531 616.195 78.9207L608.987 82.3913ZM615.903 90.0151C618.974 91.8066 622.599 92.576 626.559 92.576V84.576C623.606 84.576 621.471 84.0014 619.934 83.1049L615.903 90.0151ZM626.559 92.576C630.33 92.576 633.809 91.9841 636.901 90.6759L633.784 83.3081C631.884 84.1119 629.508 84.576 626.559 84.576V92.576ZM636.967 90.6472C640.15 89.2329 642.957 87.0843 645.402 84.3065L639.396 79.0215C637.616 81.0437 635.72 82.4471 633.718 83.3368L636.967 90.6472ZM639.585 84.5069L653.697 98.4749L659.325 92.7891L645.213 78.8211L639.585 84.5069ZM653.509 92.9879C650.37 96.5518 646.613 99.2117 642.197 100.995L645.193 108.413C650.761 106.164 655.548 102.776 659.512 98.2761L653.509 92.9879ZM642.197 100.995C637.764 102.785 632.575 103.728 626.559 103.728V111.728C633.406 111.728 639.642 110.655 645.193 108.413L642.197 100.995Z" fill="#D07425" fill-opacity="0.2"/>
</svg>
