<svg width="814" height="140" viewBox="0 0 814 140" fill="none" xmlns="http://www.w3.org/2000/svg">
<path d="M-10.504 107H-14.504V111H-10.504V107ZM-10.504 4.472V0.471998H-14.504V4.472H-10.504ZM10.376 4.472L13.6817 2.21985L12.4909 0.471998H10.376V4.472ZM43.928 53.72L40.6223 55.9721L43.928 60.8243L47.2337 55.9721L43.928 53.72ZM77.48 4.472V0.471998H75.3651L74.1743 2.21985L77.48 4.472ZM98.36 4.472H102.36V0.471998H98.36V4.472ZM98.36 107V111H102.36V107H98.36ZM69.848 107H65.848V111H69.848V107ZM69.848 58.904H73.848V46.1966L66.5692 56.6128L69.848 58.904ZM53.144 82.808V86.808H55.2287L56.4228 85.0992L53.144 82.808ZM34.712 82.808L31.4204 85.0808L32.613 86.808H34.712V82.808ZM18.008 58.616L21.2996 56.3432L14.008 45.783V58.616H18.008ZM18.008 107V111H22.008V107H18.008ZM-6.504 107V4.472H-14.504V107H-6.504ZM-10.504 8.472H10.376V0.471998H-10.504V8.472ZM7.07027 6.72415L40.6223 55.9721L47.2337 51.4678L13.6817 2.21985L7.07027 6.72415ZM47.2337 55.9721L80.7857 6.72415L74.1743 2.21985L40.6223 51.4678L47.2337 55.9721ZM77.48 8.472H98.36V0.471998H77.48V8.472ZM94.36 4.472V107H102.36V4.472H94.36ZM98.36 103H69.848V111H98.36V103ZM73.848 107V58.904H65.848V107H73.848ZM66.5692 56.6128L49.8652 80.5168L56.4228 85.0992L73.1268 61.1952L66.5692 56.6128ZM53.144 78.808H34.712V86.808H53.144V78.808ZM38.0036 80.5352L21.2996 56.3432L14.7164 60.8888L31.4204 85.0808L38.0036 80.5352ZM14.008 58.616V107H22.008V58.616H14.008ZM18.008 103H-10.504V111H18.008V103ZM122.699 137.24L119.039 135.627L116.566 141.24H122.699V137.24ZM137.099 104.552L140.76 106.165L141.432 104.638L140.821 103.087L137.099 104.552ZM110.171 36.152V32.152H104.298L106.449 37.6173L110.171 36.152ZM140.123 36.152L143.982 35.0983L143.178 32.152H140.123V36.152ZM150.347 73.592L146.489 74.6457L150.403 88.9783L154.214 74.618L150.347 73.592ZM160.283 36.152V32.152H157.206L156.417 35.126L160.283 36.152ZM190.091 36.152L193.814 37.6153L195.962 32.152H190.091V36.152ZM162.299 106.856L166.022 108.32L166.022 108.319L162.299 106.856ZM150.347 137.24V141.24H153.072L154.07 138.704L150.347 137.24ZM126.36 138.853L140.76 106.165L133.439 102.939L119.039 135.627L126.36 138.853ZM140.821 103.087L113.893 34.6867L106.449 37.6173L133.377 106.017L140.821 103.087ZM110.171 40.152H140.123V32.152H110.171V40.152ZM136.265 37.2057L146.489 74.6457L154.206 72.5383L143.982 35.0983L136.265 37.2057ZM154.214 74.618L164.15 37.178L156.417 35.126L146.481 72.566L154.214 74.618ZM160.283 40.152H190.091V32.152H160.283V40.152ZM186.369 34.6887L158.577 105.393L166.022 108.319L193.814 37.6153L186.369 34.6887ZM158.577 105.392L146.625 135.776L154.07 138.704L166.022 108.32L158.577 105.392ZM150.347 133.24H122.699V141.24H150.347V133.24ZM231.494 107H227.494V111H231.494V107ZM231.494 4.472V0.471998H227.494V4.472H231.494ZM296.87 8.504L295.055 12.0686L295.093 12.0883L295.132 12.1071L296.87 8.504ZM309.542 19.88L306.135 21.9764L306.159 22.015L306.183 22.053L309.542 19.88ZM309.542 55.592L306.164 53.4487L306.149 53.4721L306.135 53.4956L309.542 55.592ZM296.87 67.112L298.632 70.7027L298.645 70.6962L298.658 70.6897L296.87 67.112ZM260.294 71V67H256.294V71H260.294ZM260.294 107V111H264.294V107H260.294ZM260.294 25.208V21.208H256.294V25.208H260.294ZM260.294 50.264H256.294V54.264H260.294V50.264ZM282.038 47.096L284.621 50.1495L282.038 47.096ZM282.038 28.376L279.454 31.4295L279.489 31.4591L279.524 31.4878L282.038 28.376ZM235.494 107V4.472H227.494V107H235.494ZM231.494 8.472H279.014V0.471998H231.494V8.472ZM279.014 8.472C285.082 8.472 290.401 9.69915 295.055 12.0686L298.684 4.93935C292.779 1.93284 286.193 0.471998 279.014 0.471998V8.472ZM295.132 12.1071C299.833 14.3732 303.472 17.6484 306.135 21.9764L312.948 17.7836C309.468 12.1276 304.659 7.81877 298.607 4.90092L295.132 12.1071ZM306.183 22.053C308.854 26.1812 310.294 31.3417 310.294 37.736H318.294C318.294 30.1143 316.565 23.3708 312.9 17.707L306.183 22.053ZM310.294 37.736C310.294 44.0196 308.861 49.1996 306.164 53.4487L312.919 57.7353C316.558 52.0004 318.294 45.2764 318.294 37.736H310.294ZM306.135 53.4956C303.464 57.8359 299.808 61.1707 295.081 63.5343L298.658 70.6897C304.683 67.6773 309.475 63.3321 312.948 57.6884L306.135 53.4956ZM295.107 63.5213C290.441 65.8118 285.104 67 279.014 67V75C286.171 75 292.738 73.5962 298.632 70.7027L295.107 63.5213ZM279.014 67H260.294V75H279.014V67ZM256.294 71V107H264.294V71H256.294ZM260.294 103H231.494V111H260.294V103ZM273.398 21.208H260.294V29.208H273.398V21.208ZM256.294 25.208V50.264H264.294V25.208H256.294ZM260.294 54.264H273.398V46.264H260.294V54.264ZM273.398 54.264C277.609 54.264 281.405 52.8715 284.621 50.1495L279.454 44.0424C277.679 45.5445 275.714 46.264 273.398 46.264V54.264ZM284.621 50.1495C288.243 47.0853 289.782 42.7064 289.782 37.736H281.782C281.782 41.0216 280.824 42.8827 279.454 44.0425L284.621 50.1495ZM289.782 37.736C289.782 32.7147 288.266 28.265 284.551 25.2642L279.524 31.4878C280.801 32.519 281.782 34.3093 281.782 37.736H289.782ZM284.621 25.3225C281.405 22.6005 277.609 21.208 273.398 21.208V29.208C275.714 29.208 277.679 29.9275 279.454 31.4295L284.621 25.3225ZM327.447 107H323.447V111H327.447V107ZM327.447 36.152V32.152H323.447V36.152H327.447ZM355.671 36.152H359.671V32.152H355.671V36.152ZM355.671 39.896H351.671V47.6157L357.978 43.1639L355.671 39.896ZM387.639 39.176L390.908 41.4811L392.849 38.7289L390.468 36.3476L387.639 39.176ZM371.799 61.64L368.789 64.274L372.138 68.1012L375.068 63.9451L371.799 61.64ZM368.775 59.768L367.099 63.3998L367.261 63.4748L367.43 63.535L368.775 59.768ZM355.671 107V111H359.671V107H355.671ZM331.447 107V36.152H323.447V107H331.447ZM327.447 40.152H355.671V32.152H327.447V40.152ZM351.671 36.152V39.896H359.671V36.152H351.671ZM357.978 43.1639C362.09 40.2611 367.201 38.712 373.527 38.712V30.712C365.837 30.712 359.044 32.6189 353.364 36.6281L357.978 43.1639ZM373.527 38.712C379.448 38.712 382.9 40.0938 384.811 42.0044L390.468 36.3476C386.426 32.3062 380.47 30.712 373.527 30.712V38.712ZM384.37 36.8709L368.53 59.3349L375.068 63.9451L390.908 41.4811L384.37 36.8709ZM374.809 59.006C373.544 57.5603 371.864 56.6238 370.12 56.001L367.43 63.535C368.374 63.8722 368.71 64.1837 368.789 64.274L374.809 59.006ZM370.451 56.1362C368.561 55.2636 366.474 54.904 364.311 54.904V62.904C365.605 62.904 366.493 63.1204 367.099 63.3998L370.451 56.1362ZM364.311 54.904C360.676 54.904 357.257 55.9571 354.832 58.7055C352.491 61.3584 351.671 64.93 351.671 68.696H359.671C359.671 65.934 360.291 64.6096 360.831 63.9985C361.285 63.4829 362.187 62.904 364.311 62.904V54.904ZM351.671 68.696V107H359.671V68.696H351.671ZM355.671 103H327.447V111H355.671V103ZM408.179 103.976L406.28 107.496L406.313 107.514L406.346 107.531L408.179 103.976ZM393.779 90.584L390.365 92.6675L390.378 92.6884L390.391 92.7092L393.779 90.584ZM393.779 52.424L390.381 50.3145L393.779 52.424ZM408.035 39.32L409.891 42.8633L409.902 42.8579L409.912 42.8525L408.035 39.32ZM449.651 39.32L447.752 42.8401L447.773 42.8518L447.795 42.8633L449.651 39.32ZM463.907 52.424L460.509 54.5334L460.522 54.5544L460.535 54.5753L463.907 52.424ZM464.051 90.584L467.466 92.6675L464.051 90.584ZM449.795 103.976L451.651 107.519L451.673 107.508L451.695 107.496L449.795 103.976ZM437.555 80.648L440.446 83.4129L440.475 83.3822L440.504 83.3509L437.555 80.648ZM437.411 62.648L434.463 65.3509L434.521 65.415L434.583 65.4764L437.411 62.648ZM420.275 62.648L417.387 59.8804L417.357 59.9124L417.327 59.9451L420.275 62.648ZM420.275 80.648L417.327 83.3509L417.385 83.415L417.447 83.4764L420.275 80.648ZM429.059 104.728C421.841 104.728 415.522 103.262 410.013 100.421L406.346 107.531C413.125 111.026 420.726 112.728 429.059 112.728V104.728ZM410.079 100.456C404.622 97.5108 400.342 93.5201 397.168 88.4588L390.391 92.7092C394.321 98.9759 399.641 103.913 406.28 107.496L410.079 100.456ZM397.194 88.5005C394.148 83.5086 392.595 77.8549 392.595 71.432H384.595C384.595 79.2171 386.499 86.3314 390.365 92.6675L397.194 88.5005ZM392.595 71.432C392.595 65.0084 394.148 59.415 397.178 54.5334L390.381 50.3145C386.499 56.569 384.595 63.6476 384.595 71.432H392.595ZM397.178 54.5334C400.241 49.5986 404.449 45.7142 409.891 42.8633L406.179 35.7767C399.526 39.2618 394.23 44.1134 390.381 50.3145L397.178 54.5334ZM409.912 42.8525C415.413 39.9302 421.716 38.424 428.915 38.424V30.424C420.563 30.424 412.946 32.1818 406.159 35.7875L409.912 42.8525ZM428.915 38.424C436.116 38.424 442.36 39.9305 447.752 42.8401L451.551 35.7999C444.846 32.1815 437.266 30.424 428.915 30.424V38.424ZM447.795 42.8633C453.238 45.7142 457.446 49.5986 460.509 54.5334L467.306 50.3146C463.457 44.1134 458.161 39.2618 451.507 35.7767L447.795 42.8633ZM460.535 54.5753C463.646 59.4517 465.235 65.0301 465.235 71.432H473.235C473.235 63.6259 471.273 56.5323 467.28 50.2727L460.535 54.5753ZM465.235 71.432C465.235 77.8549 463.683 83.5086 460.637 88.5005L467.466 92.6675C471.332 86.3314 473.235 79.2171 473.235 71.432H465.235ZM460.637 88.5005C457.563 93.5378 453.344 97.5157 447.896 100.456L451.695 107.496C458.343 103.908 463.628 98.9582 467.466 92.6675L460.637 88.5005ZM447.939 100.433C442.539 103.261 436.28 104.728 429.059 104.728V112.728C437.391 112.728 444.956 111.027 451.651 107.519L447.939 100.433ZM428.915 87.96C433.427 87.96 437.435 86.561 440.446 83.4129L434.665 77.8831C433.452 79.151 431.7 79.96 428.915 79.96V87.96ZM440.504 83.3509C443.421 80.1682 444.723 76.1115 444.723 71.576H436.723C436.723 74.5285 435.913 76.5198 434.607 77.9451L440.504 83.3509ZM444.723 71.576C444.723 66.9972 443.344 62.9237 440.24 59.8196L434.583 65.4764C435.895 66.7883 436.723 68.6668 436.723 71.576H444.723ZM440.36 59.9451C437.383 56.6978 433.42 55.192 428.915 55.192V63.192C431.515 63.192 433.215 63.9902 434.463 65.3509L440.36 59.9451ZM428.915 55.192C424.409 55.192 420.439 56.6961 417.387 59.8804L423.163 65.4156C424.528 63.9919 426.318 63.192 428.915 63.192V55.192ZM417.327 59.9451C414.409 63.1278 413.107 67.1845 413.107 71.72H421.107C421.107 68.7675 421.917 66.7762 423.224 65.3509L417.327 59.9451ZM413.107 71.72C413.107 76.1905 414.427 80.1875 417.327 83.3509L423.224 77.9451C421.9 76.5005 421.107 74.5455 421.107 71.72H413.107ZM417.447 83.4764C420.51 86.5398 424.461 87.96 428.915 87.96V79.96C426.266 79.96 424.456 79.1722 423.104 77.8196L417.447 83.4764ZM487.508 25.352L484.583 28.0813L484.63 28.1317L484.679 28.1804L487.508 25.352ZM487.508 4.472L484.632 1.69191L484.63 1.69362L487.508 4.472ZM508.244 4.472L505.319 7.20127L505.342 7.22602L505.366 7.25038L508.244 4.472ZM508.244 25.352L511.121 28.1304L511.145 28.106L511.168 28.0813L508.244 25.352ZM466.628 136.808L468.309 133.179L468.293 133.171L468.276 133.164L466.628 136.808ZM456.404 129.464L453.575 126.636L450.882 129.328L453.44 132.15L456.404 129.464ZM473.54 112.328L476.368 109.5L473.54 106.671L470.711 109.5L473.54 112.328ZM476.132 114.2L477.756 110.545L477.647 110.496L477.536 110.455L476.132 114.2ZM483.764 36.152V32.152H479.764V36.152H483.764ZM511.988 36.152H515.988V32.152H511.988V36.152ZM508.1 124.424L511.603 126.354L508.1 124.424ZM497.156 135.512L499.14 138.985L497.156 135.512ZM497.876 25.528C494.751 25.528 492.33 24.5179 490.336 22.5236L484.679 28.1804C488.253 31.7541 492.744 33.528 497.876 33.528V25.528ZM490.432 22.6227C488.471 20.5215 487.476 18.0082 487.476 14.84H479.476C479.476 19.9278 481.168 24.4224 484.583 28.0813L490.432 22.6227ZM487.476 14.84C487.476 11.6724 488.468 9.23559 490.385 7.25038L484.63 1.69362C481.171 5.2764 479.476 9.75162 479.476 14.84H487.476ZM490.384 7.25208C492.388 5.17812 494.795 4.15199 497.876 4.15199V-3.84801C492.701 -3.84801 488.195 -1.99413 484.632 1.69191L490.384 7.25208ZM497.876 4.15199C501.08 4.15199 503.447 5.19506 505.319 7.20127L511.168 1.74273C507.664 -2.01107 503.119 -3.84801 497.876 -3.84801V4.15199ZM505.366 7.25038C507.283 9.23559 508.276 11.6724 508.276 14.84H516.276C516.276 9.75162 514.58 5.27641 511.121 1.69362L505.366 7.25038ZM508.276 14.84C508.276 18.0082 507.281 20.5215 505.319 22.6227L511.168 28.0813C514.583 24.4224 516.276 19.9278 516.276 14.84H508.276ZM505.366 22.5736C503.505 24.5012 501.124 25.528 497.876 25.528V33.528C503.075 33.528 507.606 31.7708 511.121 28.1304L505.366 22.5736ZM480.452 135.544C475.629 135.544 471.617 134.711 468.309 133.179L464.946 140.437C469.511 142.553 474.714 143.544 480.452 143.544V135.544ZM468.276 133.164C464.71 131.55 461.759 129.417 459.368 126.778L453.44 132.15C456.616 135.655 460.482 138.418 464.979 140.452L468.276 133.164ZM459.232 132.292L476.368 115.156L470.711 109.5L453.575 126.636L459.232 132.292ZM470.711 115.156C471.844 116.289 473.185 117.367 474.727 117.945L477.536 110.455C477.568 110.467 477.474 110.435 477.25 110.273C477.03 110.115 476.736 109.867 476.368 109.5L470.711 115.156ZM474.507 117.855C475.767 118.415 477.138 118.776 478.58 118.776V110.776C478.485 110.776 478.224 110.753 477.756 110.545L474.507 117.855ZM478.58 118.776C481.069 118.776 483.626 118.043 485.473 115.939C487.234 113.935 487.764 111.338 487.764 108.872H479.764C479.764 110.342 479.43 110.697 479.462 110.661C479.486 110.633 479.502 110.639 479.428 110.667C479.33 110.705 479.074 110.776 478.58 110.776V118.776ZM487.764 108.872V36.152H479.764V108.872H487.764ZM483.764 40.152H511.988V32.152H483.764V40.152ZM507.988 36.152V108.296H515.988V36.152H507.988ZM507.988 108.296C507.988 113.755 506.823 118.452 504.596 122.494L511.603 126.354C514.56 120.988 515.988 114.933 515.988 108.296H507.988ZM504.596 122.494C502.362 126.548 499.243 129.712 495.171 132.039L499.14 138.985C504.477 135.936 508.653 131.708 511.603 126.354L504.596 122.494ZM495.171 132.039C491.176 134.322 486.318 135.544 480.452 135.544V143.544C487.449 143.544 493.728 142.078 499.14 138.985L495.171 132.039ZM544.205 104.12L542.395 107.687L542.417 107.698L542.439 107.709L544.205 104.12ZM529.517 91.016L526.103 93.0995L526.124 93.1336L526.145 93.1673L529.517 91.016ZM529.373 52.424L525.975 50.3145L525.962 50.3359L525.949 50.3573L529.373 52.424ZM543.485 39.32L545.365 42.851L545.387 42.8393L545.409 42.8272L543.485 39.32ZM583.229 39.032L581.322 42.5481L581.346 42.5607L581.369 42.573L583.229 39.032ZM596.477 51.56L593.031 53.5908L593.045 53.6134L593.058 53.6359L596.477 51.56ZM601.085 74.6L597.113 74.1326L597.1 74.2413L597.093 74.3505L601.085 74.6ZM600.221 80.072L600.245 84.0719L603.419 84.0532L604.122 80.9585L600.221 80.072ZM551.549 80.36L551.526 76.3601L545.873 76.3935L547.785 81.7128L551.549 80.36ZM581.789 82.664L584.603 79.8211L581.58 76.8288L578.779 80.03L581.789 82.664ZM595.901 96.632L598.885 99.2961L601.416 96.4619L598.715 93.7891L595.901 96.632ZM551.549 63.08L547.738 61.8672L546.069 67.1125L551.573 67.0799L551.549 63.08ZM575.885 62.936L575.909 66.9359L580.982 66.9059L579.769 61.9799L575.885 62.936ZM565.949 104.728C558.192 104.728 551.569 103.287 545.972 100.531L542.439 107.709C549.322 111.097 557.194 112.728 565.949 112.728V104.728ZM546.016 100.553C540.374 97.689 536.034 93.7935 532.89 88.8647L526.145 93.1673C530.105 99.3745 535.556 104.215 542.395 107.687L546.016 100.553ZM532.932 88.9325C529.896 83.9576 528.333 78.2125 528.333 71.576H520.333C520.333 79.5315 522.226 86.7464 526.103 93.0995L532.932 88.9325ZM528.333 71.576C528.333 65.0241 529.854 59.3696 532.798 54.4907L525.949 50.3573C522.173 56.6144 520.333 63.7279 520.333 71.576H528.333ZM532.772 54.5334C535.845 49.5829 540.017 45.6975 545.365 42.851L541.606 35.789C535.05 39.2785 529.814 44.1291 525.975 50.3145L532.772 54.5334ZM545.409 42.8272C550.712 39.919 556.759 38.424 563.645 38.424V30.424C555.556 30.424 548.163 32.193 541.562 35.8127L545.409 42.8272ZM563.645 38.424C570.47 38.424 576.325 39.8377 581.322 42.5481L585.136 35.5159C578.806 32.0823 571.604 30.424 563.645 30.424V38.424ZM581.369 42.573C586.392 45.2121 590.251 48.8728 593.031 53.5908L599.924 49.5292C596.368 43.4952 591.395 38.8039 585.09 35.491L581.369 42.573ZM593.058 53.6359C595.905 58.3251 597.373 63.7373 597.373 69.992H605.373C605.373 62.4227 603.578 55.5469 599.897 49.4841L593.058 53.6359ZM597.373 69.992C597.373 71.2558 597.289 72.6346 597.113 74.1326L605.058 75.0674C605.266 73.3014 605.373 71.6082 605.373 69.992H597.373ZM597.093 74.3505C597.015 75.6053 596.771 77.2058 596.321 79.1855L604.122 80.9585C604.632 78.7142 604.964 76.6667 605.078 74.8495L597.093 74.3505ZM600.198 76.0721L551.526 76.3601L551.573 84.3599L600.245 84.0719L600.198 76.0721ZM547.785 81.7128C549.142 85.4893 551.399 88.5612 554.649 90.6411C557.858 92.695 561.713 93.576 565.949 93.576V85.576C562.794 85.576 560.552 84.921 558.962 83.9029C557.411 82.9108 556.164 81.3747 555.314 79.0072L547.785 81.7128ZM565.949 93.576C573.544 93.576 579.953 90.8371 584.8 85.298L578.779 80.03C575.562 83.7069 571.41 85.576 565.949 85.576V93.576ZM578.976 85.5069L593.088 99.4749L598.715 93.7891L584.603 79.8211L578.976 85.5069ZM592.918 93.9679C586.615 101.027 577.804 104.728 565.949 104.728V112.728C579.631 112.728 590.788 108.365 598.885 99.2961L592.918 93.9679ZM564.221 49.576C560.333 49.576 556.774 50.5436 553.829 52.752C550.897 54.9516 548.932 58.1131 547.738 61.8672L555.361 64.2928C556.183 61.7109 557.338 60.1204 558.629 59.152C559.909 58.1924 561.678 57.576 564.221 57.576V49.576ZM551.573 67.0799L575.909 66.9359L575.862 58.9361L551.526 59.0801L551.573 67.0799ZM579.769 61.9799C578.853 58.2551 577.126 55.0474 574.321 52.7963C571.503 50.5353 568.017 49.576 564.221 49.576V57.576C566.666 57.576 568.243 58.1767 569.314 59.0357C570.397 59.9046 571.382 61.3769 572.001 63.8921L579.769 61.9799ZM628.668 103.976L630.501 100.421L628.668 103.976ZM614.124 90.872L610.735 92.9972L610.744 93.0102L610.752 93.0233L614.124 90.872ZM614.124 52.568L610.761 50.4021L610.757 50.4094L610.752 50.4167L614.124 52.568ZM628.812 39.32L630.645 42.8752L630.656 42.8698L630.666 42.8644L628.812 39.32ZM677.34 44.936L680.169 47.7644L683.111 44.8221L680.055 41.9982L677.34 44.936ZM659.628 62.648L656.915 65.5872L659.739 68.194L662.457 65.4764L659.628 62.648ZM655.452 60.056L654.048 63.8013L655.452 60.056ZM640.908 62.648L643.616 65.5917L643.621 65.5872L640.908 62.648ZM641.052 80.504L643.765 77.5648L641.052 80.504ZM656.028 82.808L654.325 79.1887L656.028 82.808ZM660.348 79.64L663.177 76.8116L660.241 73.8764L657.417 76.9182L660.348 79.64ZM678.06 97.352L680.785 100.281L683.821 97.4561L680.889 94.5236L678.06 97.352ZM665.1 105.992L666.599 109.7L666.633 109.687L666.666 109.673L665.1 105.992ZM649.404 104.728C642.29 104.728 636.018 103.265 630.501 100.421L626.835 107.531C633.606 111.023 641.158 112.728 649.404 112.728V104.728ZM630.501 100.421C624.955 97.5609 620.65 93.6647 617.496 88.7207L610.752 93.0233C614.702 99.2153 620.094 104.055 626.835 107.531L630.501 100.421ZM617.513 88.7468C614.386 83.7601 612.796 78.1214 612.796 71.72H604.796C604.796 79.5266 606.759 86.6559 610.735 92.9972L617.513 88.7468ZM612.796 71.72C612.796 65.2108 614.391 59.5869 617.496 54.7193L610.752 50.4167C606.753 56.685 604.796 63.8292 604.796 71.72H612.796ZM617.487 54.7339C620.745 49.6749 625.107 45.7308 630.645 42.8752L626.979 35.7648C620.229 39.2452 614.799 44.1331 610.761 50.4021L617.487 54.7339ZM630.666 42.8644C636.276 39.9299 642.637 38.424 649.836 38.424V30.424C641.483 30.424 633.828 32.1821 626.958 35.7756L630.666 42.8644ZM649.836 38.424C659.628 38.424 667.813 41.5791 674.625 47.8738L680.055 41.9982C671.699 34.2769 661.549 30.424 649.836 30.424V38.424ZM674.512 42.1076L656.8 59.8196L662.457 65.4764L680.169 47.7644L674.512 42.1076ZM662.341 59.7088C660.727 58.2187 658.894 57.0747 656.857 56.3107L654.048 63.8013C655.082 64.1893 656.033 64.7733 656.915 65.5872L662.341 59.7088ZM656.857 56.3107C654.746 55.5191 652.368 55.192 649.836 55.192V63.192C651.72 63.192 653.086 63.4409 654.048 63.8013L656.857 56.3107ZM649.836 55.192C645.394 55.192 641.444 56.7097 638.195 59.7088L643.621 65.5872C645.364 63.9783 647.366 63.192 649.836 63.192V55.192ZM638.2 59.7043C634.874 62.7638 633.308 66.8123 633.308 71.432H641.308C641.308 68.7557 642.142 66.9482 643.616 65.5917L638.2 59.7043ZM633.308 71.432C633.308 76.1655 634.934 80.3 638.339 83.4432L643.765 77.5648C642.178 76.1 641.308 74.1865 641.308 71.432H633.308ZM638.339 83.4432C641.565 86.421 645.458 87.96 649.836 87.96V79.96C647.494 79.96 645.531 79.195 643.765 77.5648L638.339 83.4432ZM649.836 87.96C652.709 87.96 655.403 87.523 657.731 86.4273L654.325 79.1887C653.389 79.629 651.956 79.96 649.836 79.96V87.96ZM657.731 86.4273C659.834 85.4377 661.689 84.0743 663.279 82.3618L657.417 76.9182C656.511 77.8937 655.486 78.6423 654.325 79.1887L657.731 86.4273ZM657.52 82.4684L675.232 100.18L680.889 94.5236L663.177 76.8116L657.52 82.4684ZM675.336 94.4233C671.497 97.994 667.56 100.598 663.534 102.311L666.666 109.673C671.664 107.546 676.367 104.39 680.785 100.281L675.336 94.4233ZM663.601 102.284C659.659 103.877 654.954 104.728 649.404 104.728V112.728C655.759 112.728 661.518 111.755 666.599 109.7L663.601 102.284ZM698.23 107H694.23V111H698.23V107ZM698.23 59.192H702.23V55.192H698.23V59.192ZM683.11 59.192H679.11V63.192H683.11V59.192ZM683.11 36.152V32.152H679.11V36.152H683.11ZM698.23 36.152V40.152H702.23V36.152H698.23ZM698.23 7.064V3.064H694.23V7.064H698.23ZM726.454 7.064H730.454V3.064H726.454V7.064ZM726.454 36.152H722.454V40.152H726.454V36.152ZM741.574 36.152H745.574V32.152H741.574V36.152ZM741.574 59.192V63.192H745.574V59.192H741.574ZM726.454 59.192V55.192H722.454V59.192H726.454ZM726.454 107V111H730.454V107H726.454ZM702.23 107V59.192H694.23V107H702.23ZM698.23 55.192H683.11V63.192H698.23V55.192ZM687.11 59.192V36.152H679.11V59.192H687.11ZM683.11 40.152H698.23V32.152H683.11V40.152ZM702.23 36.152V7.064H694.23V36.152H702.23ZM698.23 11.064H726.454V3.064H698.23V11.064ZM722.454 7.064V36.152H730.454V7.064H722.454ZM726.454 40.152H741.574V32.152H726.454V40.152ZM737.574 36.152V59.192H745.574V36.152H737.574ZM741.574 55.192H726.454V63.192H741.574V55.192ZM722.454 59.192V107H730.454V59.192H722.454ZM726.454 103H698.23V111H726.454V103ZM754.269 102.68L752.372 106.202L752.391 106.212L752.409 106.222L754.269 102.68ZM744.765 95.768L741.896 92.9805L739.148 95.8083L741.936 98.5964L744.765 95.768ZM759.597 80.504L762.425 77.6756L759.556 74.8063L756.728 77.7165L759.597 80.504ZM767.805 85.976L766.243 89.6583L766.262 89.6666L766.282 89.6747L767.805 85.976ZM780.765 82.52L779.161 86.1846L779.201 86.2021L779.242 86.2187L780.765 82.52ZM774.717 80.648L773.783 84.5375L773.8 84.5416L773.817 84.5456L774.717 80.648ZM766.941 78.488L765.595 82.255L765.675 82.2833L765.755 82.3083L766.941 78.488ZM759.165 74.744L756.976 78.0919L757.022 78.1219L757.068 78.1506L759.165 74.744ZM753.117 68.12L749.587 70.0023L749.601 70.0274L749.614 70.0523L753.117 68.12ZM754.557 45.224L751.326 42.8661L751.32 42.8741L751.314 42.882L754.557 45.224ZM765.357 36.872L766.96 40.5366L766.978 40.5289L766.995 40.5211L765.357 36.872ZM799.773 36.872L798.416 40.6348L799.773 36.872ZM813.741 46.376L816.596 49.1774L819.107 46.618L816.837 43.843L813.741 46.376ZM798.765 61.64L795.781 64.3041L798.627 67.4917L801.62 64.4414L798.765 61.64ZM790.845 56.312L789.58 60.1067L789.637 60.1259L789.695 60.1433L790.845 56.312ZM779.757 55.736L782.082 58.9909L782.12 58.9639L782.157 58.936L779.757 55.736ZM786.957 62.072L786.023 65.9615L786.04 65.9656L786.057 65.9696L786.957 62.072ZM794.733 64.376L793.387 68.143L794.733 64.376ZM802.365 68.408L800.028 71.6541L800.058 71.6757L800.088 71.6968L802.365 68.408ZM808.413 75.32L804.883 77.2024L804.897 77.2274L804.91 77.2523L808.413 75.32ZM779.901 105.16C775.837 105.16 771.76 104.63 767.662 103.562L765.643 111.302C770.378 112.538 775.133 113.16 779.901 113.16V105.16ZM767.662 103.562C763.526 102.482 759.685 101.006 756.128 99.1384L752.409 106.222C756.533 108.386 760.948 110.078 765.643 111.302L767.662 103.562ZM756.165 99.1581C752.71 97.2979 749.87 95.2164 747.593 92.9396L741.936 98.5964C744.844 101.504 748.339 104.03 752.372 106.202L756.165 99.1581ZM747.633 98.5555L762.465 83.2915L756.728 77.7165L741.896 92.9805L747.633 98.5555ZM756.768 83.3324C759.456 86.0199 762.628 88.1251 766.243 89.6583L769.367 82.2937C766.645 81.1389 764.346 79.5961 762.425 77.6756L756.768 83.3324ZM766.282 89.6747C770.032 91.2189 773.958 91.992 778.029 91.992V83.992C774.996 83.992 772.106 83.4211 769.328 82.2773L766.282 89.6747ZM778.029 91.992C779.945 91.992 781.954 91.7859 783.625 90.997C784.513 90.5778 785.447 89.9267 786.157 88.9217C786.892 87.8802 787.213 86.7005 787.213 85.544H779.213C779.213 85.2035 779.318 84.7378 779.621 84.3083C779.898 83.9153 780.185 83.7742 780.209 83.763C780.222 83.7566 780.076 83.8245 779.675 83.8876C779.285 83.949 778.746 83.992 778.029 83.992V91.992ZM787.213 85.544C787.213 83.9918 786.716 82.5069 785.71 81.2632C784.756 80.0847 783.509 79.3244 782.288 78.8213L779.242 86.2187C779.652 86.3876 779.63 86.4673 779.492 86.2968C779.417 86.204 779.337 86.0719 779.281 85.9101C779.225 85.7501 779.213 85.6187 779.213 85.544H787.213ZM782.368 78.8554C780.52 78.0467 778.242 77.3563 775.616 76.7504L773.817 84.5456C776.184 85.0917 777.938 85.6493 779.161 86.1846L782.368 78.8554ZM775.65 76.7584C773.349 76.206 770.841 75.5104 768.126 74.6677L765.755 82.3083C768.608 83.1936 771.285 83.938 773.783 84.5375L775.65 76.7584ZM768.286 74.721C765.867 73.8572 763.526 72.7314 761.261 71.3374L757.068 78.1506C759.795 79.8286 762.638 81.1988 765.595 82.255L768.286 74.721ZM761.354 71.3961C759.441 70.1452 757.861 68.4386 756.619 66.1877L749.614 70.0523C751.445 73.3694 753.897 76.0788 756.976 78.0919L761.354 71.3961ZM756.646 66.2376C755.509 64.1051 754.813 61.1569 754.813 57.176H746.813C746.813 62.0271 747.653 66.3749 749.587 70.0023L756.646 66.2376ZM754.813 57.176C754.813 53.4527 755.825 50.2992 757.799 47.566L751.314 42.882C748.296 47.0608 746.813 51.8753 746.813 57.176H754.813ZM757.788 47.5819C759.905 44.6801 762.906 42.3103 766.96 40.5366L763.753 33.2074C758.592 35.4657 754.392 38.6639 751.326 42.8661L757.788 47.5819ZM766.995 40.5211C771.095 38.6804 775.943 37.704 781.629 37.704V29.704C775.027 29.704 769.027 30.8396 763.718 33.2229L766.995 40.5211ZM781.629 37.704C787.407 37.704 792.996 38.6801 798.416 40.6348L801.13 33.1092C794.838 30.8399 788.33 29.704 781.629 29.704V37.704ZM798.416 40.6348C803.689 42.5367 807.708 45.3196 810.645 48.9089L816.837 43.843C812.861 38.9844 807.568 35.4313 801.13 33.1092L798.416 40.6348ZM810.885 43.5746L795.91 58.8386L801.62 64.4414L816.596 49.1774L810.885 43.5746ZM801.748 58.9759C798.955 55.8471 795.711 53.5957 791.994 52.4807L789.695 60.1433C791.739 60.7563 793.775 62.0569 795.781 64.3041L801.748 58.9759ZM792.11 52.5173C789.03 51.4907 786.17 50.872 783.645 50.872V58.872C784.96 58.872 786.899 59.2133 789.58 60.1067L792.11 52.5173ZM783.645 50.872C781.623 50.872 779.208 51.1473 777.357 52.536L782.157 58.936C781.947 59.0934 781.88 59.0577 782.172 58.9927C782.452 58.9306 782.925 58.872 783.645 58.872V50.872ZM777.432 52.4811C775.801 53.6457 774.749 55.4383 774.749 57.608H782.749C782.749 57.8292 782.694 58.1415 782.523 58.4604C782.356 58.769 782.161 58.9341 782.082 58.9909L777.432 52.4811ZM774.749 57.608C774.749 61.0837 777.412 62.9733 779.449 63.8646L782.656 56.5354C782.198 56.3348 782.182 56.2414 782.314 56.3905C782.394 56.4798 782.512 56.6413 782.607 56.8784C782.704 57.1211 782.749 57.3742 782.749 57.608H774.749ZM779.449 63.8646C781.277 64.6641 783.49 65.3537 786.023 65.9615L787.89 58.1824C785.623 57.6383 783.901 57.0799 782.656 56.5354L779.449 63.8646ZM786.057 65.9696C788.386 66.507 790.829 67.2293 793.387 68.143L796.078 60.609C793.26 59.6027 790.519 58.789 787.856 58.1744L786.057 65.9696ZM793.387 68.143C795.709 68.9722 797.921 70.1375 800.028 71.6541L804.702 65.1619C802.008 63.2225 799.132 61.6998 796.078 60.609L793.387 68.143ZM800.088 71.6968C802.022 73.0354 803.624 74.8409 804.883 77.2024L811.942 73.4376C810.13 70.0391 807.7 67.2366 804.642 65.1192L800.088 71.6968ZM804.91 77.2523C806.012 79.2483 806.717 82.1611 806.717 86.264H814.717C814.717 81.3429 813.886 76.9597 811.915 73.3877L804.91 77.2523ZM806.717 86.264C806.717 92.0218 804.52 96.391 799.983 99.7548L804.747 106.181C811.346 101.289 814.717 94.5222 814.717 86.264H806.717ZM799.983 99.7548C795.312 103.217 788.753 105.16 779.901 105.16V113.16C789.865 113.16 798.281 110.975 804.747 106.181L799.983 99.7548Z" fill="#D07425" fill-opacity="0.2"/>
</svg>
